<svg xmlns="http://www.w3.org/2000/svg" width="940" height="520" viewBox="0 0 940 520" font-family="-apple-system,Segoe UI,Roboto,sans-serif">
<rect x="0" y="0" width="940" height="520" rx="10" fill="#fbfbfc" stroke="#d7dae0"/>
<text x="74" y="30" font-size="19" font-weight="700" fill="#1b1f24">Inference efficiency on 2×RTX 4090 — throughput vs energy</text>
<text x="74" y="49" font-size="12.5" fill="#5b616b">each dot = one served model · dot size scales with weights on disk · upper-right is better</text>
<line x1="74.0" y1="66" x2="74.0" y2="450" stroke="#e6e8eb"/>
<text x="74.0" y="468" font-size="11" fill="#5b616b" text-anchor="middle">0</text>
<line x1="74" y1="450.0" x2="728" y2="450.0" stroke="#e6e8eb"/>
<text x="66" y="454.0" font-size="11" fill="#5b616b" text-anchor="end">0</text>
<line x1="204.8" y1="66" x2="204.8" y2="450" stroke="#e6e8eb"/>
<text x="204.8" y="468" font-size="11" fill="#5b616b" text-anchor="middle">1,496</text>
<line x1="74" y1="373.2" x2="728" y2="373.2" stroke="#e6e8eb"/>
<text x="66" y="377.2" font-size="11" fill="#5b616b" text-anchor="end">5</text>
<line x1="335.6" y1="66" x2="335.6" y2="450" stroke="#e6e8eb"/>
<text x="335.6" y="468" font-size="11" fill="#5b616b" text-anchor="middle">2,992</text>
<line x1="74" y1="296.4" x2="728" y2="296.4" stroke="#e6e8eb"/>
<text x="66" y="300.4" font-size="11" fill="#5b616b" text-anchor="end">9</text>
<line x1="466.4" y1="66" x2="466.4" y2="450" stroke="#e6e8eb"/>
<text x="466.4" y="468" font-size="11" fill="#5b616b" text-anchor="middle">4,488</text>
<line x1="74" y1="219.6" x2="728" y2="219.6" stroke="#e6e8eb"/>
<text x="66" y="223.6" font-size="11" fill="#5b616b" text-anchor="end">14</text>
<line x1="597.2" y1="66" x2="597.2" y2="450" stroke="#e6e8eb"/>
<text x="597.2" y="468" font-size="11" fill="#5b616b" text-anchor="middle">5,984</text>
<line x1="74" y1="142.8" x2="728" y2="142.8" stroke="#e6e8eb"/>
<text x="66" y="146.8" font-size="11" fill="#5b616b" text-anchor="end">18</text>
<line x1="728.0" y1="66" x2="728.0" y2="450" stroke="#e6e8eb"/>
<text x="728.0" y="468" font-size="11" fill="#5b616b" text-anchor="middle">7,480</text>
<line x1="74" y1="66.0" x2="728" y2="66.0" stroke="#e6e8eb"/>
<text x="66" y="70.0" font-size="11" fill="#5b616b" text-anchor="end">23</text>
<line x1="74" y1="450" x2="728" y2="450" stroke="#b7bcc4"/>
<line x1="74" y1="66" x2="74" y2="450" stroke="#b7bcc4"/>
<text x="401.0" y="496" font-size="12.5" fill="#1b1f24" text-anchor="middle">aggregate throughput under concurrent decode (tok/s)</text>
<text x="22" y="258.0" font-size="12.5" fill="#1b1f24" text-anchor="middle" transform="rotate(-90 22 258.0)">efficiency — tokens per joule</text>
<circle cx="236.5" cy="363.1" r="14.9" fill="#2ca02c" fill-opacity="0.72" stroke="#ffffff" stroke-width="1"/>
<polygon points="100.8,418.8 86.0,444.3 115.7,444.3" fill="#2ca02c" fill-opacity="0.72" stroke="#ffffff" stroke-width="1"/>
<circle cx="141.0" cy="422.2" r="14.5" fill="#8a8f98" fill-opacity="0.72" stroke="#ffffff" stroke-width="1"/>
<circle cx="153.8" cy="421.5" r="14.2" fill="#e0952b" fill-opacity="0.72" stroke="#ffffff" stroke-width="1"/>
<circle cx="151.5" cy="421.8" r="13.9" fill="#2ca02c" fill-opacity="0.72" stroke="#ffffff" stroke-width="1"/>
<rect x="86.1" y="426.3" width="27.9" height="27.9" rx="1.5" fill="#8a8f98" fill-opacity="0.72" stroke="#ffffff" stroke-width="1"/>
<circle cx="170.3" cy="416.4" r="13.7" fill="#8a8f98" fill-opacity="0.72" stroke="#ffffff" stroke-width="1"/>
<polygon points="82.6,432.5 69.0,455.9 96.2,455.9" fill="#2ca02c" fill-opacity="0.72" stroke="#ffffff" stroke-width="1"/>
<circle cx="290.6" cy="358.4" r="13.4" fill="#8a8f98" fill-opacity="0.72" stroke="#ffffff" stroke-width="1"/>
<rect x="93.5" y="420.7" width="26.8" height="26.8" rx="1.5" fill="#8a8f98" fill-opacity="0.72" stroke="#ffffff" stroke-width="1"/>
<polygon points="102.6,419.9 89.3,442.7 115.8,442.7" fill="#2ca02c" fill-opacity="0.72" stroke="#ffffff" stroke-width="1"/>
<circle cx="171.2" cy="414.2" r="12.8" fill="#2ca02c" fill-opacity="0.72" stroke="#ffffff" stroke-width="1"/>
<rect x="160.9" y="401.4" width="25.6" height="25.6" rx="1.5" fill="#8a8f98" fill-opacity="0.72" stroke="#ffffff" stroke-width="1"/>
<circle cx="170.9" cy="413.7" r="12.8" fill="#2ca02c" fill-opacity="0.72" stroke="#ffffff" stroke-width="1"/>
<circle cx="253.3" cy="344.5" r="12.7" fill="#2ca02c" fill-opacity="0.72" stroke="#ffffff" stroke-width="1"/>
<circle cx="173.1" cy="412.4" r="12.7" fill="#2ca02c" fill-opacity="0.72" stroke="#ffffff" stroke-width="1"/>
<polygon points="103.9,420.0 91.4,441.4 116.4,441.4" fill="#2ca02c" fill-opacity="0.72" stroke="#ffffff" stroke-width="1"/>
<circle cx="160.2" cy="413.4" r="12.5" fill="#e0952b" fill-opacity="0.72" stroke="#ffffff" stroke-width="1"/>
<polygon points="84.7,433.9 72.7,454.6 96.7,454.6" fill="#2ca02c" fill-opacity="0.72" stroke="#ffffff" stroke-width="1"/>
<circle cx="182.2" cy="410.3" r="12.0" fill="#8a8f98" fill-opacity="0.72" stroke="#ffffff" stroke-width="1"/>
<circle cx="221.1" cy="397.2" r="11.9" fill="#8a8f98" fill-opacity="0.72" stroke="#ffffff" stroke-width="1"/>
<rect x="205.9" y="385.8" width="23.7" height="23.7" rx="1.5" fill="#8a8f98" fill-opacity="0.72" stroke="#ffffff" stroke-width="1"/>
<circle cx="211.1" cy="387.9" r="11.9" fill="#8a8f98" fill-opacity="0.72" stroke="#ffffff" stroke-width="1"/>
<circle cx="181.4" cy="410.0" r="11.6" fill="#8a8f98" fill-opacity="0.72" stroke="#ffffff" stroke-width="1"/>
<circle cx="288.1" cy="336.1" r="11.5" fill="#8a8f98" fill-opacity="0.72" stroke="#ffffff" stroke-width="1"/>
<polygon points="85.9,434.1 74.4,453.9 97.4,453.9" fill="#2ca02c" fill-opacity="0.72" stroke="#ffffff" stroke-width="1"/>
<polygon points="91.3,430.7 80.7,449.1 102.0,449.1" fill="#2ca02c" fill-opacity="0.72" stroke="#ffffff" stroke-width="1"/>
<polygon points="112.9,420.4 102.5,438.3 123.3,438.3" fill="#2ca02c" fill-opacity="0.72" stroke="#ffffff" stroke-width="1"/>
<polygon points="112.4,421.0 102.1,438.7 122.7,438.7" fill="#2ca02c" fill-opacity="0.72" stroke="#ffffff" stroke-width="1"/>
<polygon points="112.9,421.7 102.6,439.4 123.2,439.4" fill="#2ca02c" fill-opacity="0.72" stroke="#ffffff" stroke-width="1"/>
<circle cx="213.6" cy="383.7" r="10.2" fill="#2ca02c" fill-opacity="0.72" stroke="#ffffff" stroke-width="1"/>
<circle cx="220.2" cy="379.8" r="10.0" fill="#2ca02c" fill-opacity="0.72" stroke="#ffffff" stroke-width="1"/>
<circle cx="221.2" cy="378.3" r="10.0" fill="#2ca02c" fill-opacity="0.72" stroke="#ffffff" stroke-width="1"/>
<polygon points="97.9,428.4 88.1,445.2 107.6,445.2" fill="#2ca02c" fill-opacity="0.72" stroke="#ffffff" stroke-width="1"/>
<circle cx="249.7" cy="370.0" r="9.6" fill="#8a8f98" fill-opacity="0.72" stroke="#ffffff" stroke-width="1"/>
<rect x="203.7" y="375.6" width="19.3" height="19.3" rx="1.5" fill="#8a8f98" fill-opacity="0.72" stroke="#ffffff" stroke-width="1"/>
<circle cx="206.3" cy="387.6" r="9.6" fill="#8a8f98" fill-opacity="0.72" stroke="#ffffff" stroke-width="1"/>
<circle cx="283.0" cy="349.4" r="9.6" fill="#8a8f98" fill-opacity="0.72" stroke="#ffffff" stroke-width="1"/>
<polygon points="101.1,426.5 91.6,442.8 110.6,442.8" fill="#2ca02c" fill-opacity="0.72" stroke="#ffffff" stroke-width="1"/>
<polygon points="95.9,431.0 86.4,447.2 105.3,447.2" fill="#2ca02c" fill-opacity="0.72" stroke="#ffffff" stroke-width="1"/>
<circle cx="316.1" cy="350.1" r="9.3" fill="#8a8f98" fill-opacity="0.72" stroke="#ffffff" stroke-width="1"/>
<polygon points="101.5,429.4 92.3,445.1 110.6,445.1" fill="#2ca02c" fill-opacity="0.72" stroke="#ffffff" stroke-width="1"/>
<polygon points="97.9,430.8 88.8,446.4 106.9,446.4" fill="#2ca02c" fill-opacity="0.72" stroke="#ffffff" stroke-width="1"/>
<circle cx="281.2" cy="350.3" r="8.9" fill="#8a8f98" fill-opacity="0.72" stroke="#ffffff" stroke-width="1"/>
<polygon points="106.2,427.5 97.3,442.7 115.0,442.7" fill="#2ca02c" fill-opacity="0.72" stroke="#ffffff" stroke-width="1"/>
<polygon points="103.6,428.5 94.7,443.7 112.4,443.7" fill="#2ca02c" fill-opacity="0.72" stroke="#ffffff" stroke-width="1"/>
<polygon points="109.0,425.9 100.4,440.6 117.5,440.6" fill="#2ca02c" fill-opacity="0.72" stroke="#ffffff" stroke-width="1"/>
<polygon points="105.9,428.3 97.4,443.0 114.4,443.0" fill="#2ca02c" fill-opacity="0.72" stroke="#ffffff" stroke-width="1"/>
<circle cx="344.2" cy="316.4" r="8.4" fill="#8a8f98" fill-opacity="0.72" stroke="#ffffff" stroke-width="1"/>
<polygon points="111.3,426.4 103.1,440.6 119.6,440.6" fill="#2ca02c" fill-opacity="0.72" stroke="#ffffff" stroke-width="1"/>
<circle cx="611.2" cy="100.9" r="7.1" fill="#8a8f98" fill-opacity="0.72" stroke="#ffffff" stroke-width="1"/>
<circle cx="691.0" cy="104.8" r="7.0" fill="#8a8f98" fill-opacity="0.72" stroke="#ffffff" stroke-width="1"/>
<rect x="679.9" y="103.2" width="14.0" height="14.0" rx="1.5" fill="#8a8f98" fill-opacity="0.72" stroke="#ffffff" stroke-width="1"/>
<polygon points="174.8,365.5 168.4,376.5 181.2,376.5" fill="#2ca02c" fill-opacity="0.72" stroke="#ffffff" stroke-width="1"/>
<polygon points="185.1,368.5 179.2,378.7 191.0,378.7" fill="#2ca02c" fill-opacity="0.72" stroke="#ffffff" stroke-width="1"/>
<text x="601.2" y="104.4" font-size="10.5" fill="#1b1f24" text-anchor="end">LFM2.5-1.2B-Instruct</text>
<text x="681.0" y="108.3" font-size="10.5" fill="#1b1f24" text-anchor="end">MiniCPM5-1B</text>
<text x="676.9" y="113.7" font-size="10.5" fill="#1b1f24" text-anchor="end">MiniCPM5-1B</text>
<text x="354.2" y="319.9" font-size="10.5" fill="#1b1f24" text-anchor="start">NVIDIA-Nemotron-3-Nano-4B-FP8</text>
<text x="92.6" y="449.6" font-size="10.5" fill="#1b1f24" text-anchor="start">Qwen3.6-27B-GGUF</text>
<text x="752" y="72" font-size="11.5" font-weight="700" fill="#1b1f24">tool-call support</text>
<circle cx="758" cy="88.0" r="6" fill="#2ca02c" fill-opacity="0.72" stroke="#ffffff"/>
<text x="772" y="92" font-size="11" fill="#3b414a">tool-calls parsed</text>
<circle cx="758" cy="108.0" r="6" fill="#8a8f98" fill-opacity="0.72" stroke="#ffffff"/>
<text x="772" y="112" font-size="11" fill="#3b414a">no / unconfigured</text>
<circle cx="758" cy="128.0" r="6" fill="#e0952b" fill-opacity="0.72" stroke="#ffffff"/>
<text x="772" y="132" font-size="11" fill="#3b414a">tool test errored</text>
<text x="752" y="166" font-size="11.5" font-weight="700" fill="#1b1f24">dot size = GB on disk</text>
<circle cx="764" cy="184.0" r="6.9" fill="#8a8f98" fill-opacity="0.5" stroke="#ffffff"/>
<text x="782" y="188" font-size="11" fill="#3b414a">2 GB</text>
<circle cx="764" cy="206.0" r="10.4" fill="#8a8f98" fill-opacity="0.5" stroke="#ffffff"/>
<text x="782" y="210" font-size="11" fill="#3b414a">12 GB</text>
<circle cx="764" cy="228.0" r="14.1" fill="#8a8f98" fill-opacity="0.5" stroke="#ffffff"/>
<text x="782" y="232" font-size="11" fill="#3b414a">32 GB</text>
<text x="752" y="262" font-size="11.5" font-weight="700" fill="#1b1f24">engine (shape)</text>
<circle cx="758.0" cy="278.0" r="6.0" fill="#8a8f98" fill-opacity="0.72" stroke="#ffffff" stroke-width="1"/>
<text x="772" y="282" font-size="11" fill="#3b414a">vLLM</text>
<polygon points="758.0,292.0 752.0,302.3 764.0,302.3" fill="#8a8f98" fill-opacity="0.72" stroke="#ffffff" stroke-width="1"/>
<text x="772" y="302" font-size="11" fill="#3b414a">llama.cpp</text>
<rect x="752.0" y="312.0" width="12.0" height="12.0" rx="1.5" fill="#8a8f98" fill-opacity="0.72" stroke="#ffffff" stroke-width="1"/>
<text x="772" y="322" font-size="11" fill="#3b414a">SGLang</text>
</svg>
